<?xml version="1.0" encoding="UTF-8" standalone="no"?>
<!-- Created with Inkscape (http://www.inkscape.org/) -->

<svg
   width="123.67067mm"
   height="27.516666mm"
   viewBox="0 0 123.67067 27.516666"
   version="1.1"
   id="svg1"
   xml:space="preserve"
   xmlns="http://www.w3.org/2000/svg"
   xmlns:svg="http://www.w3.org/2000/svg"><defs
     id="defs1" /><g
     id="layer1"
     transform="translate(-58.504204,-23.706822)"><g
       style="opacity:0.7;fill:#f6f4f3"
       id="g2"
       transform="matrix(0.12291374,0,0,0.12741241,104.84775,21.666771)"><path
         d="m 234.29,114.85 -45,38.83 13.71,58.07 a 16.4,16.4 0 0 1 -24.5,17.82 L 128,198.49 77.47,229.57 A 16.4,16.4 0 0 1 53,211.75 l 13.76,-58.07 -45,-38.83 A 16.46,16.46 0 0 1 31.08,86 l 59,-4.76 22.76,-55.08 a 16.36,16.36 0 0 1 30.27,0 l 22.75,55.08 59,4.76 a 16.46,16.46 0 0 1 9.37,28.86 z"
         id="path1-88" /></g><g
       style="opacity:0.7;fill:#f6f4f3"
       id="g4"
       transform="matrix(0.0921853,0,0,0.09555931,140.30008,23.18822)"><path
         d="m 234.29,114.85 -45,38.83 13.71,58.07 a 16.4,16.4 0 0 1 -24.5,17.82 L 128,198.49 77.47,229.57 A 16.4,16.4 0 0 1 53,211.75 l 13.76,-58.07 -45,-38.83 A 16.46,16.46 0 0 1 31.08,86 l 59,-4.76 22.76,-55.08 a 16.36,16.36 0 0 1 30.27,0 l 22.75,55.08 59,4.76 a 16.46,16.46 0 0 1 9.37,28.86 z"
         id="path3" /></g><g
       style="opacity:0.7;fill:#f6f4f3"
       id="g5"
       transform="matrix(0.06145687,0,0,0.06370621,167.42937,23.363426)"><path
         d="m 234.29,114.85 -45,38.83 13.71,58.07 a 16.4,16.4 0 0 1 -24.5,17.82 L 128,198.49 77.47,229.57 A 16.4,16.4 0 0 1 53,211.75 l 13.76,-58.07 -45,-38.83 A 16.46,16.46 0 0 1 31.08,86 l 59,-4.76 22.76,-55.08 a 16.36,16.36 0 0 1 30.27,0 l 22.75,55.08 59,4.76 a 16.46,16.46 0 0 1 9.37,28.86 z"
         id="path4" /></g><g
       style="opacity:0.7;fill:#f6f4f3"
       id="g12"
       transform="matrix(-0.0921853,0,0,0.09555931,100.37902,23.188213)"><path
         d="m 234.29,114.85 -45,38.83 13.71,58.07 a 16.4,16.4 0 0 1 -24.5,17.82 L 128,198.49 77.47,229.57 A 16.4,16.4 0 0 1 53,211.75 l 13.76,-58.07 -45,-38.83 A 16.46,16.46 0 0 1 31.08,86 l 59,-4.76 22.76,-55.08 a 16.36,16.36 0 0 1 30.27,0 l 22.75,55.08 59,4.76 a 16.46,16.46 0 0 1 9.37,28.86 z"
         id="path11" /></g><g
       style="opacity:0.7;fill:#f6f4f3"
       id="g15"
       transform="matrix(-0.06145687,0,0,0.06370621,73.24973,23.363419)"><path
         d="m 234.29,114.85 -45,38.83 13.71,58.07 a 16.4,16.4 0 0 1 -24.5,17.82 L 128,198.49 77.47,229.57 A 16.4,16.4 0 0 1 53,211.75 l 13.76,-58.07 -45,-38.83 A 16.46,16.46 0 0 1 31.08,86 l 59,-4.76 22.76,-55.08 a 16.36,16.36 0 0 1 30.27,0 l 22.75,55.08 59,4.76 a 16.46,16.46 0 0 1 9.37,28.86 z"
         id="path15" /></g></g></svg>
