<?xml version="1.0" encoding="UTF-8" standalone="no"?>
<!-- Created with Inkscape (http://www.inkscape.org/) -->

<svg
   width="50.292519mm"
   height="22.176481mm"
   viewBox="0 0 50.292519 22.176481"
   version="1.1"
   id="svg1"
   xml:space="preserve"
   xmlns="http://www.w3.org/2000/svg"
   xmlns:svg="http://www.w3.org/2000/svg"><defs
     id="defs1" /><g
     id="layer1"
     transform="translate(-32.54375,-73.025)"><path
       d="m 41.18583,81.90338 h -2.83568 v -1.62039 l -0.0169,-0.47261 v -6.51531 h 2.85256 z m -2.76817,-3.51084 0.57389,0.27006 c 0,0.70892 -0.1294,1.32782 -0.38822,1.8567 -0.25881,0.51762 -0.63015,0.92272 -1.11402,1.21529 -0.48386,0.29257 -1.05775,0.43885 -1.72166,0.43885 -0.99024,0 -1.77792,-0.29257 -2.36307,-0.87771 -0.57388,-0.59639 -0.86083,-1.45722 -0.86083,-2.58249 v -5.41817 h 2.85256 v 5.13123 c 0,0.47261 0.11815,0.82707 0.35446,1.06338 0.23631,0.2363 0.54576,0.35446 0.92835,0.35446 0.29257,0 0.55701,-0.0619 0.79331,-0.18567 0.24756,-0.12379 0.45574,-0.29257 0.62453,-0.50638 0.16879,-0.22505 0.27569,-0.47823 0.3207,-0.75955 z m 12.75021,3.51084 h -2.85255 v -4.97932 c 0,-0.52888 -0.11816,-0.92272 -0.35446,-1.18153 -0.23631,-0.25882 -0.55701,-0.38822 -0.96211,-0.38822 -0.28132,0 -0.55138,0.0788 -0.81019,0.23631 -0.24756,0.14628 -0.45011,0.37696 -0.60765,0.69204 -0.15754,0.31507 -0.23631,0.73142 -0.23631,1.24905 v 4.37167 h -2.85256 v -8.60831 h 2.83568 v 2.71752 h -0.3207 c 0.0788,-0.81019 0.27569,-1.42909 0.59077,-1.85669 0.31508,-0.42761 0.68079,-0.72018 1.09714,-0.87771 0.4276,-0.16879 0.8327,-0.25319 1.21529,-0.25319 1.00149,0 1.7948,0.30945 2.37995,0.92835 0.58513,0.6189 0.8777,1.51349 0.8777,2.68377 z m 4.0744,0 h -2.85256 v -8.60831 h 2.85256 z"
       id="text18-9"
       style="font-weight:800;font-size:21.5002px;line-height:3;font-family:'Wix Madefor Display';-inkscape-font-specification:'Wix Madefor Display, Ultra-Bold';letter-spacing:-0.529167px;fill:#f6f4f3;fill-opacity:1;stroke-width:0.41543;stroke-linecap:round;stroke-linejoin:round"
       aria-label="uni" /><path
       d="M 42.20943,91.656863 H 39.35687 V 86.67754 c 0,-0.52887 -0.11815,-0.92272 -0.35446,-1.18153 -0.2363,-0.25881 -0.55701,-0.38822 -0.9621,-0.38822 -0.28132,0 -0.55139,0.0788 -0.8102,0.23631 -0.24756,0.14628 -0.45011,0.37696 -0.60764,0.69204 -0.15754,0.31508 -0.23631,0.73142 -0.23631,1.249053 v 4.37167 H 33.5336 V 83.04855 h 2.83568 v 2.71752 h -0.3207 c 0.0788,-0.81019 0.27569,-1.42909 0.59077,-1.85669 0.31507,-0.4276 0.68078,-0.72017 1.09713,-0.87771 0.42761,-0.16879 0.8327,-0.25319 1.2153,-0.25319 1.00149,0 1.7948,0.30945 2.37994,0.92835 0.58514,0.6189 0.87771,1.51349 0.87771,2.68377 z m 0.69859,-1.26593 1.43472,-1.72166 c 0.37134,0.37134 0.83832,0.66391 1.40096,0.87771 0.56263,0.2138 1.10276,0.3207 1.62039,0.3207 0.4276,0 0.75393,-0.0619 0.97898,-0.18567 0.23631,-0.13503 0.35446,-0.29257 0.35446,-0.47261 0,-0.2138 -0.11252,-0.36571 -0.33758,-0.45573 -0.22505,-0.10128 -0.66953,-0.19693 -1.33344,-0.28695 -1.21529,-0.16879 -2.13239,-0.46136 -2.75129,-0.87771 -0.6189,-0.427603 -0.92835,-1.029623 -0.92835,-1.806063 0,-0.59639 0.16879,-1.11964 0.50638,-1.56975 0.33758,-0.45011 0.79894,-0.79894 1.38408,-1.0465 0.58514,-0.25881 1.24905,-0.38822 1.99172,-0.38822 0.90022,0 1.69354,0.13504 2.37995,0.4051 0.69767,0.27006 1.27718,0.60765 1.73854,1.01274 l -1.43472,1.73855 c -0.34883,-0.32633 -0.75956,-0.59077 -1.23217,-0.79332 -0.46136,-0.20255 -0.9396,-0.30382 -1.43472,-0.30382 -0.38259,0 -0.68078,0.0675 -0.89459,0.20254 -0.2138,0.12379 -0.3207,0.27007 -0.3207,0.43886 0,0.1913 0.11815,0.32633 0.35446,0.4051 0.24756,0.0788 0.68642,0.16316 1.31657,0.25318 1.15903,0.18005 2.06487,0.48387 2.71752,0.91147 0.65266,0.427603 0.97899,1.057753 0.97899,1.890453 0,0.60765 -0.17442,1.13653 -0.52325,1.58664 -0.34883,0.4501 -0.83833,0.79894 -1.46848,1.0465 -0.63015,0.2363 -1.3672,0.35446 -2.21115,0.35446 -0.85521,0 -1.6654,-0.14066 -2.43059,-0.42198 -0.75393,-0.28132 -1.37283,-0.65266 -1.85669,-1.11402 z m 23.15427,0.0169 c 0,0.99024 -0.21943,1.83982 -0.65828,2.54874 -0.43886,0.72017 -1.05213,1.27156 -1.83982,1.65415 -0.78769,0.39384 -1.70478,0.59076 -2.75128,0.59076 -0.8102,0 -1.58101,-0.11815 -2.31243,-0.35446 -0.73143,-0.22505 -1.33907,-0.54575 -1.82294,-0.9621 l 1.43472,-1.90733 c 0.36009,0.30382 0.7483,0.5345 1.16465,0.69204 0.41635,0.15753 0.86646,0.2363 1.35033,0.2363 0.55138,0 1.01837,-0.09 1.40096,-0.27006 0.38259,-0.16879 0.67516,-0.42761 0.87771,-0.77644 0.20255,-0.33758 0.30382,-0.75956 0.30382,-1.26593 v -3.30829 c 0,-0.461363 -0.0844,-0.849583 -0.25318,-1.164653 -0.16879,-0.32633 -0.39947,-0.57389 -0.69204,-0.74268 -0.29257,-0.18004 -0.63016,-0.27007 -1.01275,-0.27007 -0.40509,0 -0.75955,0.0957 -1.06338,0.28695 -0.29257,0.19129 -0.52325,0.45011 -0.69204,0.77643 -0.15754,0.31508 -0.2363,0.66954 -0.2363,1.063383 0,0.4051 0.0844,0.76519 0.25318,1.08026 0.18004,0.31508 0.4276,0.56264 0.74268,0.74268 0.31507,0.18004 0.68079,0.27006 1.09714,0.27006 0.32633,0 0.62452,-0.0563 0.89459,-0.16879 0.27006,-0.12378 0.49512,-0.29256 0.67516,-0.50637 0.19129,-0.22505 0.31507,-0.48386 0.37134,-0.77643 l 0.6414,0.27006 c 0,0.64141 -0.12941,1.23217 -0.38822,1.7723 -0.25881,0.52888 -0.6414,0.95085 -1.14777,1.26593 -0.49512,0.31508 -1.10839,0.47261 -1.83982,0.47261 -0.75393,0 -1.45722,-0.18004 -2.10988,-0.54013 -0.6414,-0.37134 -1.15903,-0.88896 -1.55287,-1.55287 -0.38259,-0.66391 -0.57389,-1.43472 -0.57389,-2.31243 0,-0.888963 0.1913,-1.665403 0.57389,-2.329313 0.39384,-0.67516 0.91147,-1.19841 1.55287,-1.56975 0.65266,-0.38259 1.36158,-0.57389 2.12676,-0.57389 0.65266,0 1.20404,0.12941 1.65415,0.38822 0.46136,0.25881 0.82707,0.61327 1.09714,1.06338 0.27006,0.45011 0.43322,0.96211 0.48949,1.536 h -0.59077 v -2.71753 h 2.83568 z m 9.98206,1.24905 H 73.1918 V 86.67756 c 0,-0.52887 -0.11816,-0.92272 -0.35446,-1.18153 -0.23631,-0.25881 -0.55701,-0.38822 -0.96211,-0.38822 -0.28132,0 -0.55138,0.0788 -0.81019,0.23631 -0.24756,0.14628 -0.45011,0.37696 -0.60765,0.69204 -0.15754,0.31507 -0.23631,0.73142 -0.23631,1.249053 v 4.37167 H 67.36853 V 79.50397 h 2.85255 v 6.26212 H 69.8835 c 0.0788,-0.81019 0.27569,-1.42909 0.59077,-1.85669 0.31508,-0.4276 0.68079,-0.72017 1.09714,-0.87771 0.4276,-0.16879 0.8327,-0.25319 1.21529,-0.25319 1.00149,0 1.7948,0.30945 2.37994,0.92835 0.58514,0.6189 0.87771,1.51349 0.87771,2.68377 z m 6.79192,0 h -2.22804 c -0.88896,0 -1.54724,-0.2138 -1.97484,-0.6414 -0.42761,-0.42761 -0.64141,-1.08589 -0.64141,-1.97485 V 80.92181 h 2.85256 v 7.561813 c 0,0.32633 0.0619,0.55701 0.18567,0.69204 0.12378,0.12378 0.34321,0.18567 0.65828,0.18567 h 1.14778 z m -0.0844,-6.346523 h -6.09333 v -2.26179 h 6.09333 z"
       id="text19-5"
       style="font-weight:800;font-size:21.5002px;line-height:3;font-family:'Wix Madefor Display';-inkscape-font-specification:'Wix Madefor Display, Ultra-Bold';letter-spacing:-0.529167px;fill:#f6f4f3;fill-opacity:1;stroke-width:0.41543;stroke-linecap:round;stroke-linejoin:round"
       aria-label="nsight" /><path
       id="path26-4"
       style="fill:#57b8ff;fill-opacity:1;stroke-width:0.316548;stroke-linecap:round;stroke-linejoin:round"
       d="m 66.06229,79.50395 v 2.5543 h -7.71518 v -2.5543 z" /><path
       id="path27-3"
       style="fill:#57b8ff;fill-opacity:1;stroke-width:0.334517;stroke-linecap:round;stroke-linejoin:round"
       d="m 62.51136,73.85989 2.01706,2.01706 -6.18131,6.18131 -2.01706,-2.01707 z" /><path
       id="path28-1"
       style="fill:#57b8ff;fill-opacity:1;stroke-width:0.2956;stroke-linecap:round;stroke-linejoin:round"
       d="m 56.33005,73.3133 h 2.55431 v 6.72789 h -2.55431 z" /><path
       id="rect30-2"
       style="fill:#f6f4f3;fill-opacity:1;stroke-width:0.536047;stroke-linecap:round;stroke-linejoin:round"
       d="m 52.38971,83.04855 h 2.85256 v 8.833623 h -2.85256 z" /></g></svg>
